<?xml version="1.0" encoding="UTF-8"?>
<svg id="Camada_1" data-name="Camada 1" xmlns="http://www.w3.org/2000/svg" viewBox="0 0 1176 248">
  <defs>
    <style>
      .cls-1 {
        fill: #2883a0;
      }

      .cls-1, .cls-2, .cls-3, .cls-4, .cls-5, .cls-6, .cls-7, .cls-8, .cls-9, .cls-10, .cls-11, .cls-12, .cls-13, .cls-14, .cls-15, .cls-16 {
        stroke-width: 0px;
      }

      .cls-2 {
        fill: #287f9e;
      }

      .cls-3 {
        fill: #fefefe;
      }

      .cls-4 {
        fill: #2882a0;
      }

      .cls-5 {
        fill: #287d9e;
      }

      .cls-6 {
        fill: #28809f;
      }

      .cls-7 {
        fill: #2a86a3;
      }

      .cls-8 {
        fill: #fad742;
      }

      .cls-9 {
        fill: #fbe38b;
      }

      .cls-10 {
        fill: #2881a0;
      }

      .cls-11 {
        fill: #2982a0;
      }

      .cls-12 {
        fill: #fff;
      }

      .cls-13 {
        fill: #287f9f;
      }

      .cls-14 {
        fill: #2d86a4;
      }

      .cls-15 {
        fill: #287d9d;
      }

      .cls-16 {
        fill: #3e9cb5;
      }
    </style>
  </defs>
  <g>
    <path class="cls-3" d="m588,247.91c-194.47,0-388.94-.01-583.4.09-3.75,0-4.6-.84-4.59-4.59C.13,163.64.12,83.86,0,4.09,0,.67.67,0,4.1,0,393.37.1,782.63.1,1171.9,0c3.42,0,4.1.67,4.1,4.09-.12,79.94-.12,159.88,0,239.82,0,3.42-.67,4.09-4.1,4.09-194.63-.11-389.27-.09-583.9-.09Z"/>
    <path class="cls-15" d="m118.35,91.15c13.66-.67,25.27,3.38,36.11,11.79-2.67,1.59-4.55.22-6.5.13-9.59-.48-19.21-.65-28.58,2.12-12.33,3.65-18.14,14.46-19.31,25.55-.81,7.69-1.3,15.41-2.12,23.1-.22,2.09-.86,4.22-2.29,5.93-3.53,4.23-7.16,4.01-8.97-1.01-7.22-20.01-23.27-28.8-42.35-33.89-7.62-2.03-15.28-3.94-22.87-6.09-2.3-.66-4.67-1.49-5.32-4.51-1.09-5.03,2-6.82,5.87-6.89,19.55-.36,37.72-6.8,56.09-12.32,5.34-1.61,10.33-1.1,15.69.87-3.7-4.42-7.59-8.38-7.7-14.62-.12-6.32,2.23-11.29,6.78-15.26,4.9-4.26,16.35-4.1,21.43,0,7.48,6.04,9.1,15.11,4.04,25.11Z"/>
    <path class="cls-8" d="m154.01,24.02c4.98-10.81,11.69-13.06,25.08-12.06,8.03.6,14.98,9.18,17.96,22.59.83-5.22,3.19-3.49,5.84-2.9,7.35,1.64,14.5,3.53,20.44,8.47,1.15.95,2.36,1.86,3.34,2.97,2.93,3.35,1.97,6.07-2.45,6.98-7.32,1.51-14.58,3.04-21.36,6.52-9.26,4.76-14.58,13.28-20.87,20.87-5.28,6.38-10.24,13.02-15.42,19.48-1.76,2.2-3.92,3.97-7.09,4.86-.35-4.94,2.56-9.03,2.42-13.6-.46-15-7.89-25.68-20.06-33.98-8.24-5.62-16.36-3.96-24.79-1.61-1.53.43-3.21,2.16-4.53.56-1.34-1.63-.7-3.79.41-5.57,3.3-5.33,7.75-9.44,13.25-12.44,5.18-2.03,10.31-4.22,15.86-5.12h0c1.56-.86,3.26-.34,4.89-.43,2.68-.15,4.06,1.21,4.05,3.87,0,1.5.02,2.99.05,4.48.29,13.09,8.52,20.92,21.73,21.18,7,.14,13.53-.23,18.62-7.6-8.86,12.44-34.26,9.89-39.51-6.88-2.12-6.77-1.89-14.1,2.14-20.63Z"/>
    <path class="cls-15" d="m205.07,104.01c3.76,4.77,10.04,7.34,15.79,4.43,7.48-3.79,13.69-1.29,20.07,1.71,17.54,8.26,35.33,15.8,54.38,19.87,2.11.45,2.51,1.66,2.65,3.52.19,2.46-.54,4.48-2.88,5.18-4.69,1.4-9.28,3.13-14.34,3.23-9.56.19-19.1.78-28.43,3.2-13.68,3.54-23.46,12.13-30.83,23.79-1.53,2.42-2.89,5.43-6.14,4.68-3.16-.72-3.88-3.56-4.38-6.86-1.66-10.93-.95-21.89-.63-32.78.31-10.44-7.59-18.93-14.93-21.85-8.57-3.41-17.6-5.19-26.9-5.19-2.16,0-4.26-.1-6.38-1.91,6.29-4.47,13.31-6.19,20.59-6.86,4.29-.39,8.69.32,12.96-.19,3.8-.45,4.7,3.38,7.53,4.08,1.51-.2,2.23.37,1.88,1.95Z"/>
    <path class="cls-15" d="m157.73,107.44c-2.06,5.22.12,10.66-1.43,15.78-.7,2.33-.32,4.14,2.02,5.89,6.05,4.51,7.23,12.97,2.29,19.69-.61.83-1.43,1.26-.72,2.83,5.73,12.7,10,25.95,14.32,39.16,4.38,13.42,5.26,27.06,1.8,40.85-.59,2.36-.9,5.01-4.26,5.15-3.38.14-3.29-2.62-3.95-4.71-2.22-7.01-3.49-14.36-8.53-20.24-4.15-4.85-9.09-6.7-15.48-6.24-9.69.69-19.42,2.29-29.14.18-2.18-.47-3.88-1.71-5.38-3.35-1.96-2.15-1.54-3.63.94-4.96,3.17-1.69,6.25-3.53,9.36-5.34,13.11-7.65,17.76-20.28,20.69-34.2.85-4.03.79-6.51-1.85-10.16-5.4-7.46-2.32-16.59,6.03-20.44,2.07-.96,2.55-2.05,2.73-4.07.61-7,4.5-12.02,10.54-15.82Z"/>
    <path class="cls-13" d="m998.99,104.91c0-5.16.09-10.32-.04-15.47-.08-3.2,1.11-4.38,4.43-4.32,3.18.06,4.54,1.03,4.5,4.29-.1,8.65-.03,17.3,0,25.96.02,6.21,1.91,8.48,8.11,8.63,9.65.22,19.31-.02,28.97.07,2.89.03,2.85-.93,2.61-3.57-.78-8.37-1.13-16.78.22-25.2.75-4.66,3.69-7.14,7.6-8.11,13.17-3.26,26.51-3.18,39.74-.34,5.2,1.12,7.7,4.86,7.72,9.93.02,7.49.03,14.97,0,22.46-.02,5.91-1.9,9.24-7.62,10.57-13.63,3.16-27.36,3.88-40.88-.86-1.72-.6-3.26-1.94-3.72,1.37-.24,1.71-2.27,1.66-3.77,1.61-12.09-.4-24.21.9-36.29-.99-8.04-1.25-11.56-4.86-11.58-13.06-.01-4.33,0-8.65,0-12.98Z"/>
    <path class="cls-6" d="m800.92,108.73c0,2.82,0,5.65,0,8.47,0,9.13-3.25,12.41-12.46,13.77-10.05,1.47-20.09,1.74-30.03-.15-10.23-1.94-13.86-5.44-13.41-14.8.26-5.47.06-10.96.06-16.45,0-7.07,2.46-10.7,9.3-12.53,12.66-3.38,25.51-2.62,38.23-.51,5.42.9,8.22,5.22,8.29,10.73.03,1.99,0,3.99,0,5.98,0,1.83,0,3.66,0,5.48Z"/>
    <path class="cls-6" d="m618.04,108.06c0-3.33,0-6.66,0-9.98.01-6.29,1.99-9.3,8.27-11.01,12.84-3.5,25.9-2.5,38.83-.7,5.51.77,8.73,5.81,8.77,11.63.04,6.66.03,13.31,0,19.97-.03,5.78-2.69,10.33-8.02,11.71-13.31,3.43-26.82,3.69-40.09-.1-4.42-1.26-8.52-4.37-7.81-11.04.37-3.46.06-6.98.06-10.48Z"/>
    <path class="cls-4" d="m827.03,108.16c0-6.15.11-12.3-.05-18.44-.09-3.32.89-4.75,4.52-4.68,11.97.21,23.94.07,35.91.15,3.98.03,7.82,1.13,11.31,2.93,3.15,1.62,5.61,3.98,5.25,8.15-.3,3.46.3,7.07-.46,10.39-1.06,4.59-7.42,8.22-13.41,8.26-10.14.07-20.29.17-30.42-.06-3.19-.07-4.09.93-3.82,3.92.23,2.47-.04,4.99.09,7.47.19,3.67-1.27,5.58-5.12,5.72-4.21.15-3.81-2.66-3.81-5.37.01-6.15,0-12.3,0-18.44Z"/>
    <path class="cls-13" d="m936.85,127.93c.4,2.17-.64,3.91-2.65,4.66-1.98.74-3.86-.03-5.17-1.81-1.27-1.72-2.91-3.29-3.73-5.2-2.41-5.61-6.85-5.96-12.09-5.73-7.47.33-14.96.16-22.44.02-2.76-.05-4.65.61-6.02,3.25-1.34,2.57-3.24,4.86-4.98,7.22-1.58,2.14-3.68,2.11-5.68.8-1.84-1.21-2.5-2.5-.9-4.88,8.32-12.4,16.34-25,24.55-37.47,3.37-5.13,9.43-5.24,12.87-.34,8.44,12.04,16.84,24.11,25.31,36.12.73,1.04,1.01,2.04.94,3.37Z"/>
    <path class="cls-10" d="m449.95,108.63c0,6.32-.09,12.65.04,18.97.06,2.85-.74,4.47-3.89,4.35-3.02-.11-5.16-.89-5.02-4.55.14-3.82-.08-7.66.07-11.48.1-2.43-.85-3.08-3.19-3.06-10.99.11-21.99.13-32.98.01-2.5-.03-3.11.92-3.02,3.2.14,3.66.02,7.32-.01,10.99-.03,3.23-1.59,4.76-4.91,4.88-3.64.13-3.97-1.97-3.95-4.79.06-12.49.13-24.97-.04-37.46-.05-3.57,1.31-4.67,4.67-4.68,3.35,0,4.36,1.53,4.26,4.6-.12,3.99.08,7.99-.05,11.98-.08,2.39.37,3.6,3.21,3.56,10.83-.15,21.66-.15,32.48.02,3.03.05,3.64-1.18,3.53-3.83-.17-3.99.07-8-.1-11.98-.15-3.51,2.03-4.05,4.71-4.27,2.98-.25,4.26,1.09,4.23,4.06-.07,6.49-.02,12.98-.02,19.47,0,0-.01,0-.02,0Z"/>
    <path class="cls-6" d="m475.13,131.95c-6.44,0-11.77-.06-17.09.02-2.64.04-4-.82-4.01-3.71,0-2.85.81-4.3,3.96-4.27,10.32.1,20.64.18,30.95-.05,3.7-.08,7.9-.3,8.19-5.72.15-2.88-.91-4.54-3.88-5.36-3.6-.99-7.22-1.12-10.82-.84-6.33.49-12.51-.8-18.76-1.21-4.96-.33-9.25-4.4-9.6-8.28-.84-9.18,1.27-13.44,7.7-15.65,5.41-1.86,11-1.84,16.62-1.74,3.03.05,3.32,2.14,3.51,4.38.23,2.73-1.41,3.32-3.71,3.45-3.44.19-6.84-.25-10.35.72-3.24.9-5.25,1.99-4.85,5.51.39,3.45,3.1,4.67,5.96,4.79,5.98.26,11.98-.08,17.97.11,6.11.19,12.24.78,16.91,5.43,5.39,5.36,2.42,17.95-4.7,20.44-8.2,2.88-16.7,1.77-23.99,1.99Z"/>
    <path class="cls-2" d="m730.19,126.92c-2.61-6.25-7.35-7.71-13.82-7.13-6.94.62-13.98.33-20.97.1-3.58-.12-5.94,1.05-7.61,4.21-1.14,2.16-2.69,4.11-4.08,6.13-1.54,2.26-3.62,2.14-5.68,1-2.48-1.37-2.22-3.43-.89-5.47,8.37-12.79,16.75-25.57,25.2-38.31,2.01-3.03,8.43-3.66,10.48-.78,8.53,11.99,16.81,24.15,25.18,36.25.64.98.92,2.08,1.02,3.23.17,2.15-.63,3.89-2.52,4.92-2.3,1.25-3.14-.72-4.2-2.12-.59-.79-1.39-1.37-2.11-2.03Z"/>
    <path class="cls-6" d="m994.88,104.72c0,3.66-.19,7.33.04,10.98.53,8.62-.89,11.99-11.24,14.57-12.28,3.06-24.91,2.71-37.29-.41-6.31-1.59-8.46-5.59-8.43-11.6.05-9.48.13-18.97,0-28.45-.05-3.4,1.07-4.7,4.58-4.75,3.78-.05,4.43,1.73,4.38,4.92-.12,8.15-.05,16.3-.04,24.46.01,6.26,1.51,8.91,7.72,9.32,8.38.55,16.86.97,25.29-.42,4.75-.79,6.26-3.36,6.16-7.87-.18-8.15.04-16.3-.08-24.46-.05-3.51.07-6.12,4.88-5.98,4.55.13,4.04,2.89,4.03,5.73,0,4.66,0,9.32,0,13.98Z"/>
    <path class="cls-2" d="m366.64,85.1c5.33,0,10.66.07,15.99-.03,2.82-.05,4.33.8,4.36,3.95.03,3.14-1.38,3.99-4.27,3.96-10.16-.11-20.32-.07-30.48-.05-7.49.01-8.24.78-8.25,8.12,0,4.66,0,9.32,0,13.98,0,6.92,1.88,8.89,9.06,8.97,9.49.11,18.99,0,28.48.05,2.38.01,5.38-.72,5.4,3.25.02,3.77-2.35,4.69-5.61,4.68-9.83-.05-19.65.08-29.48-.08-3.96-.06-7.78-1.23-11.35-3-3.31-1.65-4.95-4.16-5.64-8.07-1.4-7.96-1.05-15.94-.45-23.8.57-7.44,6.59-11.43,15.76-11.81,5.49-.23,10.99-.04,16.48-.04,0-.03,0-.06,0-.08Z"/>
    <path class="cls-5" d="m205.07,104.01c-.63-.65-1.26-1.3-1.88-1.95-1.81-4.19-3.14-8.34-3.28-13.12-.23-8.37,8.07-15.56,16.47-15.7,8.82-.14,16.28,7.07,16.64,15.55.3,7.07-2.08,12.77-8.35,16.17-6.04,3.28-12.24,3.12-18.13-.83-.36-.24-.98-.09-1.48-.12Z"/>
    <path class="cls-10" d="m613.93,104.94c0,4.48-.22,8.98.06,13.45.32,5.23-2.33,8.55-6.6,10.59-5.11,2.43-10.7,2.97-16.33,2.94-2.88-.02-2.97-1.94-2.99-4.1-.02-2.07.39-3.38,2.84-3.77,14.19-2.24,14.18-2.29,14.17-16.82,0-5.48,0-10.96-.01-16.44,0-2.85-.5-5.62,4-5.77,4.8-.16,4.98,2.47,4.88,5.98-.14,4.65-.03,9.3-.03,13.95Z"/>
    <path class="cls-1" d="m1138.85,108.53c0,6.49-.08,12.98.04,19.47.05,2.75-.98,4.07-3.75,3.94-2.58-.12-5.15-.28-5.15-3.85,0-13.15.04-26.29,0-39.44-.01-3.45,2.19-3.44,4.68-3.56,2.93-.14,4.29.84,4.23,3.96-.13,6.49-.04,12.98-.04,19.47Z"/>
    <path class="cls-11" d="m1152.84,108.77c0,6.33-.03,12.65.02,18.98.02,2.51-.59,4.17-3.56,4.2-2.89.02-5.22-.95-5.26-3.97-.16-12.98-.14-25.97,0-38.96.03-3.17,2.47-3.93,5.25-3.93,2.89,0,3.61,1.62,3.57,4.2-.09,6.49-.03,12.99-.02,19.48Z"/>
    <path class="cls-7" d="m547.22,109.09c3.99,0,7.98.03,11.97,0,1.82-.02,3.42.32,3.67,2.44.27,2.37-1.15,4.22-3.24,4.27-8.81.23-17.62.19-26.43.01-2.2-.04-2.15-2.13-2.11-3.84.05-2.08,1.13-2.93,3.16-2.91,4.32.05,8.65.01,12.97.02Z"/>
    <path class="cls-14" d="m707.55,78c-4.15,0-8.29.04-12.44-.02-1.41-.02-3.05.27-3.05-2.16,0-2.15.5-3.69,2.88-3.71,8.62-.04,17.25.07,25.87-.02,2.62-.03,2.35,2.27,2.56,3.44.2,1.12-.84,2.53-2.89,2.43-4.3-.22-8.62-.07-12.93-.07,0,.03,0,.07,0,.1Z"/>
    <path class="cls-9" d="m154.01,24.02c-.69,3.55-2.01,6.92-1.96,10.7.12,10.14,4.47,18.78,11.43,21.21,12.73,4.44,21.16,2.77,28.09-5.99.48-.6.7-1.58,2.27-1.29-.68,5.9-5.26,9.14-9.65,10.48-6.55,2-14.06,2.59-20.44-.23-8.3-3.66-14.15-9.54-13.92-20.14.22-10.1,1.45-8.24-7.78-8.72.74-.32,1.51-.97,2.2-.9,4.45.49,7.87-.82,9.76-5.13Z"/>
    <path class="cls-16" d="m730.19,126.92c.32.08.64.19.97.22,2.16.24,2.14,4.49,4.91,3.04,2.93-1.53,1.69-4.71,1.93-7.26,1.38.52,1.77,1.82,2.35,2.97,1.27,2.55.88,4.81-1.5,6.42-2.39,1.61-4.46.15-6.12-1.36-1.13-1.03-1.71-2.67-2.54-4.04Z"/>
    <path class="cls-9" d="m142.05,30.03c-5.3,1.68-10.35,4.11-15.87,5.12,4.81-3.18,10.02-5.12,15.87-5.12Z"/>
    <path class="cls-3" d="m1074.42,124.02c-4.02-.29-8.87.71-13.54-.98-2.75-.99-4.28-2.47-4.08-5.82.33-5.31.44-10.68-.03-15.97-.43-4.85,1.71-7.32,6.03-7.74,9.05-.88,18.15-1.44,27.16.49,2.99.64,4.27,2.49,4.1,5.76-.27,5.15-.06,10.32-.06,15.48,0,6.47-1.71,8.35-8.33,8.74-3.49.2-7,.04-11.24.04Z"/>
    <path class="cls-3" d="m754.91,108.47c0-2.33.27-4.69-.05-6.97-.75-5.17,1.44-8.09,6.49-8.25,8.74-.27,17.51-1.27,26.21.64,3.33.73,4.56,2.76,4.47,6.05-.12,4.81-.02,9.63-.02,14.45,0,7.31-.99,8.92-8.18,9.48-7.1.55-14.3.44-21.42.05-6.06-.33-7.49-2.34-7.5-8.47,0-2.33,0-4.65,0-6.98Z"/>
    <path class="cls-3" d="m646.21,92.94c3.33,0,6.66-.12,9.98.03,6.29.27,8.87,3.03,8.9,9.3.02,3.99-.02,7.98-.02,11.97,0,6.5-1.67,9.31-8.02,9.56-8.39.33-16.87,1.19-25.27-.65-3.63-.8-4.91-2.8-4.86-6.23.07-4.99.02-9.98.02-14.97,0-6.71,1.47-8.43,8.29-8.94,3.64-.27,7.32-.05,10.97-.05v-.02Z"/>
    <path class="cls-3" d="m853.73,92.9c4.65,0,9.31-.11,13.96.04,3.65.12,6.98.98,7.36,5.57.47,5.59-1,7.64-6.18,8.63-10.2,1.94-20.62,1.54-30.69.46-5.35-.58-.98-7.52-2.18-11.42-.62-2,.08-3.39,2.78-3.27,4.98.21,9.97.06,14.95.06v-.06Z"/>
    <path class="cls-3" d="m893.03,112.04c3.3-6.64,7.32-11.74,11.33-17.11,3.17,4.8,5.97,9.45,9.2,13.79,2.41,3.23.84,3.37-1.93,3.34-5.97-.06-11.94-.02-18.6-.02Z"/>
    <path class="cls-3" d="m696.68,112.03c3.63-5.58,6.66-10.39,9.84-15.09,1.02-1.5,2.31-1.01,3.22.31,2.69,3.92,5.21,7.97,8.06,11.76,1.84,2.45,1.2,3.04-1.5,3.03-6.15-.04-12.29-.01-19.62-.01Z"/>
  </g>
  <path class="cls-12" d="m206.28,104.02l-3.18-2.14v.17c.66.64,1.31,1.29,1.97,1.93l.42.03-.42-.02v-.02s.02,0,.02,0h.43s.02,0,.02,0c-.04,0-.08.02-.13.03"/>
</svg>